<svg width="374" height="811" viewBox="0 0 374 811" fill="none" xmlns="http://www.w3.org/2000/svg">
<path d="M105 65L0 142V97L77 43L95 0H133L105 65Z" fill="#080410"/>
<path d="M331 0H291L144.468 142L208.5 121.39L331 0Z" fill="#080410"/>
<path d="M0 282V328L153.895 175.5L89.7629 195.013L0 282Z" fill="#080410"/>
<path d="M0 190V220L88.5 193.024L163 170.316L374 106V72L208.5 124.217L135.5 147.249L0 190Z" fill="#080410"/>
<path d="M374 240L0 420V463L374 286V240Z" fill="#080410"/>
<path d="M374 619L170 811H225L374 669V619Z" fill="#080410"/>
<path d="M374 551V508L264 539.26L180.5 605.989L374 551Z" fill="#080410"/>
<path d="M1 614V657L75 635.971L162 568.247L1 614Z" fill="#080410"/>
<path d="M374 407L1 696V742L374 450V407Z" fill="#080410"/>
</svg>
